<?xml version="1.0" encoding="utf-8"?>
<!-- Generator: Adobe Illustrator 16.0.0, SVG Export Plug-In . SVG Version: 6.00 Build 0)  -->
<!DOCTYPE svg PUBLIC "-//W3C//DTD SVG 1.1//EN" "http://www.w3.org/Graphics/SVG/1.1/DTD/svg11.dtd">
<svg version="1.1" id="Layer_1" xmlns="http://www.w3.org/2000/svg" xmlns:xlink="http://www.w3.org/1999/xlink" x="0px" y="0px"
	 width="105.258px" height="30px" viewBox="0 0 105.258 30" enable-background="new 0 0 105.258 30" xml:space="preserve">
<g transform="translate(-27.1382,-941.70395)">
	<g transform="matrix(0.82302261,0,0,-0.82302261,189.63913,997.27701)">
		<path fill="#54606E" d="M-128.152,43.968c0-3.961-4.928-3.727-4.928-3.727h-4.928v7.158h4.928
			C-128.004,47.428-128.152,43.968-128.152,43.968 M-138.008,58.312h3.755c3.901-0.205,3.754-3.11,3.754-3.11
			c0-3.608-4.312-3.666-4.312-3.666h-3.199v6.776H-138.008z M-129.06,50.127c0,0,3.375,1.437,3.344,5.251
			c0,0,0.515,6.248-7.767,7.011h-9.189V36.193h10.532c0,0,8.802-0.031,8.802,7.392C-123.34,43.586-123.135,48.631-129.06,50.127
			 M-152.838,67.523h38.681V31.072h-38.682v36.451H-152.838z"/>
	</g>
	<g transform="matrix(0.82302261,0,0,-0.82302261,85.355129,997.27701)">
		<path fill="#54606E" d="M-46.048,43.968c0-3.961-4.929-3.727-4.929-3.727h-4.927v7.158h4.927
			C-45.901,47.428-46.048,43.968-46.048,43.968 M-55.906,58.312h3.757c3.901-0.205,3.754-3.11,3.754-3.11
			c0-3.608-4.312-3.666-4.312-3.666h-3.199V58.312z M-46.957,50.127c0,0,3.375,1.437,3.344,5.251c0,0,0.513,6.248-7.767,7.011
			h-9.189V36.193h10.532c0,0,8.802-0.031,8.802,7.392C-41.238,43.586-41.031,48.631-46.957,50.127 M-70.735,67.523h38.682V31.072
			h-38.682V67.523z"/>
	</g>
	<g transform="matrix(0.82302261,0,0,-0.82302261,308.1885,958.5961)">
		<path fill="#54606E" d="M-221.484,13.512V8.673c0,0-4.724,2.903-9.946,2.963c0,0-9.739,0.19-10.178-9.337
			c0,0-0.354-8.764,10.062-9.263c0,0,4.37-0.528,10.297,3.257v-5.017c0,0-7.95-4.722-17.162-1.085c0,0-7.746,2.829-8.038,12.108
			c0,0-0.324,9.542,10.003,12.71c0,0,2.76,1.056,7.717,0.586C-228.732,15.596-225.768,15.301-221.484,13.512 M-252.274-15.926
			h38.681v36.451h-38.681V-15.926z"/>
	</g>
</g>
</svg>
