<?xml version="1.0" encoding="utf-8"?>
<!-- Generator: Adobe Illustrator 16.0.0, SVG Export Plug-In . SVG Version: 6.00 Build 0)  -->
<!DOCTYPE svg PUBLIC "-//W3C//DTD SVG 1.1//EN" "http://www.w3.org/Graphics/SVG/1.1/DTD/svg11.dtd">
<svg version="1.1" id="Layer_1" xmlns:svg="http://www.w3.org/2000/svg"
	 xmlns="http://www.w3.org/2000/svg" xmlns:xlink="http://www.w3.org/1999/xlink" x="0px" y="0px" width="63.08px" height="30px"
	 viewBox="0 0 63.08 30" enable-background="new 0 0 63.08 30" xml:space="preserve">
<g transform="matrix(1.2470709,0,0,-1.2470709,-28.601861,1011.2423)">
	<g transform="translate(-216,-15084)">
		<path fill="#54606E" d="M259.758,15894.883c-2.095-0.149-3.87-1.911-3.87-4.396v-11.822c0-0.43-0.316-0.798-0.78-0.798h-3.693
			c-7.994-0.009-7.283,10.208-0.478,10.221h4.083v2.97h-4.233c-2.709,0-4.72-1.012-6.077-2.521c-1.356-1.51-2.038-3.541-2.041-5.567
			c-0.003-2.024,0.669-4.044,2.056-5.554c1.388-1.505,3.488-2.521,6.363-2.521h6.964c0.46,0,0.839,0.398,0.839,0.858v14.418
			c-0.002,0.742,0.415,1.32,0.959,1.486c0.545,0.169,1.186-0.044,1.561-0.586l0.016-0.016c1.981-3.24,9.846-15.854,9.857-15.876
			c0.216-0.309,0.471-0.363,0.659-0.304c0.186,0.066,0.377,0.268,0.374,0.77v14.525c-0.003,0.742,0.415,1.32,0.96,1.486
			c0.545,0.169,1.17-0.044,1.547-0.586v-0.016h0.031c1.98-3.24,9.845-15.854,9.856-15.876c0.213-0.305,0.464-0.364,0.659-0.304
			c0.196,0.066,0.393,0.256,0.39,0.754v19.177h-2.987v-11.193c0,0-1.781,3.043-4.83,8.282c-2.99,5.134-8.628,3.01-8.628-1.411
			v-6.871c0,0-1.751,3.043-4.803,8.282C263.21,15894.142,261.387,15895.002,259.758,15894.883L259.758,15894.883z M251.31,15894.806
			c-16.619,0-16.457-23.68,0.226-23.692h6.525c2.805,0,4.598,1.66,4.594,4.727v6.003c0,0,3.664-6.058,5.103-8.432
			c2.442-4.036,8.343-3.239,8.327,1.801v6.631c0,0,3.652-6.058,5.088-8.432c2.439-4.036,8.359-3.239,8.343,1.801v19.599h-2.987
			v-19.178c0.003-0.735-0.384-1.279-0.916-1.454s-1.143,0.043-1.514,0.569h-0.016v0.028c0,0-7.868,12.582-9.875,15.862
			c-0.005,0.006-0.009-0.007-0.016,0c-0.003,0,0.003,0.016,0,0.016c-0.206,0.276-0.471,0.336-0.691,0.269
			c-0.226-0.068-0.437-0.261-0.434-0.75v-14.524c0.002-0.732-0.374-1.309-0.901-1.487c-0.526-0.177-1.132,0.058-1.5,0.587v0.016
			h-0.016c0,0-7.875,12.606-9.875,15.878c-0.208,0.298-0.479,0.369-0.703,0.301c-0.226-0.069-0.437-0.264-0.435-0.75v-0.018v-14.418
			c0-0.875-0.72-1.608-1.59-1.608h-6.965c-3.056,0-5.374,1.1-6.904,2.761c-1.532,1.662-2.285,3.864-2.282,6.064
			c0.002,2.195,0.757,4.415,2.251,6.076c1.493,1.66,3.735,2.759,6.631,2.76h4.232v3.003h-3.706L251.31,15894.806z"/>
	</g>
</g>
</svg>
