<?xml version="1.0" encoding="utf-8"?>
<!-- Generator: Adobe Illustrator 16.0.0, SVG Export Plug-In . SVG Version: 6.00 Build 0)  -->
<!DOCTYPE svg PUBLIC "-//W3C//DTD SVG 1.1//EN" "http://www.w3.org/Graphics/SVG/1.1/DTD/svg11.dtd">
<svg version="1.1" id="Layer_1" xmlns="http://www.w3.org/2000/svg" xmlns:xlink="http://www.w3.org/1999/xlink" x="0px" y="0px"
	 width="213.627px" height="30px" viewBox="0 0 213.627 30" enable-background="new 0 0 213.627 30" xml:space="preserve">
<g>
	<path fill="#54606E" d="M6.11,16.614V8.557L3.687,9.638c-0.001,0-0.618,1.384-0.51,3.391c0.085,1.568,0.962,3.446,1.636,4.231
		L6.11,16.614 M13.206,0.026c0.598,0.053,1.536,0.347,2.243,0.967c0.751,0.729,0.922,1.836,0.659,2.842
		c-0.234,0.896-0.496,1.362-1.411,1.981c-0.924,0.624-2.042,0.571-2.042,0.571v3.883l1.889,1.529l-1.889,1.524l0.001,5.29
		c0,0,1.893-1.086,3.067-3.514c0,0,0.048-0.132,0.159-0.382c0.105,0.65,0.045,1.969-0.692,3.66
		c-0.555,1.273-1.564,2.499-2.829,3.198c-2.243,1.243-3.924,1.362-5.727,0.989c-2.111-0.436-4.028-1.621-5.337-3.69
		c-0.92-1.454-1.331-3.149-1.293-4.973c0.074-3.58,2.737-6.668,5.811-7.82C6.189,5.941,6.339,5.848,6.869,5.8
		C6.623,5.966,6.341,6.181,5.993,6.409c-0.99,0.65-1.838,1.946-2.2,2.943L9.761,6.69v8.343l-4.813,2.412
		c0.549,0.76,2.214,1.91,3.64,2.072c2.424,0.269,3.847-0.789,3.847-0.789v-5.404L10.556,11.8l1.88-1.524V6.387
		c-1.024-0.119-2.27-0.457-2.997-0.637C8.369,5.486,4.8,4.485,4.24,4.401C3.68,4.318,2.988,4.344,2.57,4.717
		c-0.419,0.378-0.678,1.041-0.5,1.638c0.101,0.338,0.333,0.536,0.51,0.729c0,0-0.206-0.018-0.579-0.242
		C1.325,6.44,0.813,5.649,0.751,4.674c-0.08-1.278,0.447-2.429,1.501-3.202c0.916-0.589,1.952-0.967,3.157-0.795
		c1.757,0.25,4.12,1.243,6.225,1.748c0.815,0.198,1.447,0.264,2.02-0.07c0.267-0.193,0.737-0.69,0.353-1.349
		C13.559,0.233,12.7,0.25,11.973,0.114C12.598-0.018,12.735-0.018,13.206,0.026z"/>
	<path fill="#54606E" d="M36.429,14.514L33.717,16.5V9.893L36.429,14.514 M36.351,8.166c0,0-1.828,1.107-3.058,1.841
		c-1.229,0.729-2.879,1.533-2.879,1.533v7.688l-1.1,0.883l0.146,0.171l1.073-0.865l3.363,3.04l5.844-4.63l-0.138-0.167l-3.23,2.535
		l-2.655-2.486v-0.927l5.333-3.923L36.351,8.166z"/>
	<path fill="#54606E" d="M21.032,25.348c0.767,0.189,2.121,0.295,3.753-0.522c1.807-0.905,2.716-2.825,2.703-4.792l0.076-2.79
		l0.001-6.093l1.155-0.883l-0.135-0.171l-1.137,0.857l-2.624-2.917l-3.366,2.89V1.102l-4.206,3.251
		c0.187,0.119,0.783,0.229,0.801,1.067v13.76l-1.781,1.322l0.122,0.184l0.86-0.642l2.395,2.228l3.77-3L23.282,19.1l-0.886,0.702
		l-0.938-0.931l0.009-7.666l1.099-0.936l1.638,2.034c0,0-0.003,4.964,0.001,6.612c-0.012,1.757-0.018,3.948-0.941,5.008
		C22.342,24.986,21.972,25.07,21.032,25.348"/>
	<path fill="#54606E" d="M47.199,24.654c-1.506-0.172-2.139-1.086-2.122-1.805c0.011-0.463,0.43-1.367,1.346-1.49
		c0.915-0.127,1.851,0.303,2.641,1.229l3.479-3.844l-0.168-0.149l-0.934,1.047c-0.949-1.082-2.297-1.763-3.638-1.959V5.97
		l9.037,16.461c0,0,0.087,0.188,0.458,0.188c0.32,0,0.243-0.259,0.243-0.259L57.539,5.794c0.734-0.031,1.855-0.435,2.399-0.993
		c1.74-1.788,1.029-3.739,0.838-3.927c-0.106,0.852-0.762,1.709-1.856,1.713c-1.435,0.004-2.31-1.054-2.31-1.054l-3.477,3.962
		l0.167,0.15l0.996-1.138c1.216,1.12,2.105,1.225,3.023,1.287l-0.001,9.612L50.616,3.229c-0.606-1.006-1.531-1.889-2.979-1.902
		c-1.665-0.009-2.857,1.458-2.999,2.724c-0.161,1.428,0.017,1.757,0.017,1.757s0.245-1.59,1.229-1.577
		c0.884,0.013,1.344,0.826,1.698,1.436v3.527c-0.911,0.061-3.285,0.167-3.43,2.636c-0.011,0.918,0.56,1.88,1.059,2.205
		c0.642,0.422,1.143,0.413,1.143,0.413s-0.769-0.408-0.539-1.217c0.206-0.725,1.713-0.843,1.768-0.54v4.977
		c-0.725-0.009-3.047,0.071-4.094,2.061c-0.631,1.205-0.594,2.549,0.08,3.498C44.118,23.999,45.25,24.986,47.199,24.654"/>
	<path fill="#54606E" d="M66.363,14.514L63.651,16.5V9.893L66.363,14.514 M66.285,8.166c0,0-1.829,1.107-3.058,1.841
		c-1.23,0.729-2.878,1.533-2.878,1.533v7.688l-1.1,0.883l0.146,0.171l1.073-0.865l3.363,3.04l5.844-4.63l-0.138-0.167l-3.23,2.535
		l-2.655-2.486l0.001-0.927l5.333-3.923L66.285,8.166z"/>
	<path fill="#54606E" d="M74.454,22.514l-2.865-2.382l-1.259,0.914l-0.128-0.18l1.28-0.937v-6.656
		c0.062-2.741-2.511-2.06-2.371-4.968c0.061-1.278,1.299-2.245,1.923-2.565c0.669-0.338,1.392-0.338,1.392-0.338
		s-1.173,0.734-0.888,1.788c0.439,1.625,3.218,1.77,3.27,3.936v7.553l2.052,1.643l0.539-0.422v-8.176l-1.106-1.098l2.849-2.522
		l2.602,2.306l-0.993,1.076v7.245l2.437,2.013l0.433-0.277v-8.72l-1.108-1.037L85.368,8.1l2.668,2.205l1.066-0.945l0.144,0.167
		l-2.399,2.109v7.108l-6.139,3.787l-3.14-2.487L74.454,22.514"/>
	<path fill="#54606E" d="M200.11,14.514l-2.711,1.986V9.893L200.11,14.514 M200.033,8.166c0,0-1.829,1.107-3.058,1.841
		c-1.23,0.729-2.879,1.533-2.879,1.533v7.688l-1.101,0.883l0.147,0.171l1.072-0.865l3.363,3.04l5.844-4.63l-0.138-0.167
		l-3.229,2.535l-2.656-2.486v-0.927l5.334-3.923L200.033,8.166z"/>
	<polyline fill="#54606E" points="172.597,11.382 172.739,11.549 173.839,10.6 175.474,12.449 175.474,18.802 174.681,19.527 
		177.226,22.404 179.838,19.83 178.765,18.718 178.765,11.035 179.414,10.517 181.222,12.625 181.222,18.96 180.542,19.637 
		182.938,22.334 185.503,19.768 184.562,18.779 184.536,11.066 185.229,10.503 187.112,12.577 187.112,18.877 186.493,19.496 
		189.14,22.382 192.692,19.102 192.543,18.939 191.681,19.732 190.356,18.266 190.356,11.074 191.634,10.104 191.501,9.928 
		190.222,10.899 187.804,8.188 184.347,10.921 181.925,8.285 178.585,10.899 176.142,8.298 172.597,11.382 	"/>
	<polyline fill="#54606E" points="165.36,11.184 165.504,11.351 166.435,10.547 167.888,12.269 167.888,19.531 166.862,20.427 
		167.006,20.596 168.083,19.676 170.429,22.382 173.819,19.355 173.676,19.189 172.677,20.066 171.274,18.45 171.274,11.351 
		172.458,10.328 172.315,10.161 171.192,11.127 168.724,8.25 165.36,11.184 	"/>
	<polyline fill="#54606E" points="166.337,5.17 168.89,2.833 170.965,5.135 168.401,7.464 166.337,5.17 	"/>
	<path fill="#54606E" d="M155.81,16.614V8.557l-2.422,1.081c0,0-0.619,1.384-0.511,3.391c0.085,1.568,0.962,3.446,1.636,4.231
		L155.81,16.614 M162.905,0.026c0.598,0.053,1.537,0.347,2.244,0.967c0.75,0.729,0.922,1.836,0.658,2.842
		c-0.233,0.896-0.496,1.362-1.412,1.981c-0.922,0.624-2.041,0.571-2.041,0.571v3.883l1.891,1.529l-1.891,1.524v5.29
		c0,0,1.894-1.086,3.067-3.514c0,0,0.05-0.132,0.158-0.382c0.104,0.65,0.046,1.969-0.69,3.66c-0.556,1.273-1.564,2.499-2.83,3.198
		c-2.242,1.243-3.924,1.362-5.727,0.989c-2.111-0.436-4.027-1.621-5.337-3.69c-0.92-1.454-1.332-3.149-1.294-4.973
		c0.074-3.58,2.736-6.668,5.813-7.82c0.373-0.14,0.521-0.233,1.053-0.281c-0.244,0.167-0.527,0.382-0.875,0.611
		c-0.989,0.65-1.838,1.946-2.2,2.943l5.967-2.662v8.343l-4.812,2.412c0.549,0.76,2.213,1.91,3.64,2.072
		c2.424,0.269,3.846-0.789,3.846-0.789v-5.404l-1.878-1.524l1.878-1.524V6.387c-1.024-0.119-2.269-0.457-2.995-0.637
		c-1.072-0.264-4.64-1.265-5.201-1.349c-0.56-0.083-1.252-0.057-1.67,0.316c-0.418,0.378-0.678,1.041-0.5,1.638
		c0.102,0.338,0.334,0.536,0.51,0.729c0,0-0.207-0.018-0.58-0.242c-0.674-0.404-1.186-1.195-1.247-2.17
		c-0.079-1.278,0.446-2.429,1.502-3.202c0.916-0.589,1.952-0.967,3.157-0.795c1.756,0.25,4.119,1.243,6.225,1.748
		c0.816,0.198,1.447,0.264,2.02-0.07c0.267-0.193,0.736-0.69,0.353-1.349c-0.448-0.773-1.308-0.756-2.034-0.892
		C162.297-0.018,162.435-0.018,162.905,0.026z"/>
	<path fill="#54606E" d="M207.64,9.651v3.818l1.271,1.107c0,0,2.76-2.21,3.762-4.257c0,0-1.24,1.683-2.91,1.169
		C208.364,11.061,207.64,9.651,207.64,9.651 M204.558,19.773c0,0,1.209-1.998,3.285-1.568c1.992,0.413,2.684,2.518,2.684,2.518
		v-4.846l-1.389-1.209C207.61,16.202,204.894,18.42,204.558,19.773z M206.537,23.45c-0.388,0.114-2.071-0.294-2.474-2.038
		c-0.394-1.7,0.787-2.852,2.569-4.661l-2.104-1.924v-3.673c0,0,1.547-0.773,2.759-1.529c1.212-0.76,2.452-1.581,2.452-1.581
		s0.904,1.142,1.926,1.05c1.6-0.141,1.525-1.401,1.48-1.7c0.272,0.487,1.004,1.937-1.809,5.179l2.29,1.849v4.771
		c0,0-2.66,1.384-5.176,3.22c0,0-1.404-1.757-2.624-0.918C205.004,22.061,205.38,23.02,206.537,23.45z"/>
	<path fill="#54606E" d="M114.494,18.023l2.958,2.676V12.51l-2.958-2.737V18.023 M120.592,11.338l1.031-0.949l0.147,0.167
		l-1.004,0.931v7.587c0,0-1.908,1.011-3.238,1.762s-2.752,1.635-2.752,1.635l-3.5-2.949l-0.926,0.805l-0.149-0.167l0.973-0.849
		v-8.158h0.013c0,0,1.651-0.747,3.043-1.533c1.246-0.703,2.641-1.516,2.641-1.516L120.592,11.338z"/>
	<path fill="#54606E" d="M127.474,10.569l2.223-2.271c0,0,0.306,0.268,0.592,0.408c0.163,0.079,0.836,0.426,1.453,0.088
		c0.335-0.185,0.382-0.233,0.749-0.58c0.075,1.766-0.773,3.009-1.83,3.523c-0.433,0.211-1.698,0.615-3.021-0.997v8.162l1.406,1.244
		l1.174-0.972l0.137,0.173l-3.68,3.07l-2.799-2.547l-1.007,0.947l-0.165-0.176l1.534-1.384l0.013-7.047l-1.176-1.559l-1.012,0.892
		l-0.146-0.163l3.564-3.202L127.474,10.569"/>
	<path fill="#54606E" d="M136.847,13.969l4.111-5.979c0,0,0.542,0.641,1.486,0.892c1.283,0.334,2.404-0.905,2.404-0.905
		c-0.215,1.599-1.025,3.413-2.699,3.69c-1.476,0.246-2.846-0.901-2.846-0.901l-0.268,0.413l5.707,8.619l1.141-1.001l0.147,0.167
		l-3.916,3.422L136.847,13.969"/>
	<path fill="#54606E" d="M133.451,5.987c0-1.292-0.529-2.087-1.22-2.03l4.483-3.15v17.827h0.001l1.184,1.247l0.897-0.777
		l0.142,0.166l-3.613,3.154l-2.447-2.298l-0.98,0.86l-0.154-0.166l1.71-1.489V5.987"/>
	<path fill="#54606E" d="M104.662,11c0,0-0.495,0.562-1.274,0.562c-0.779,0-1.289-0.567-1.289-0.567v2.442
		c0,0,0.51-0.567,1.289-0.567c0.779,0,1.274,0.536,1.274,0.536V11 M104.662,5.768l-1.729-1.52l-0.835,0.659v5.724
		c0,0,0.514,0.65,1.293,0.65c0.78,0,1.27-0.624,1.27-0.624L104.662,5.768L104.662,5.768z M102.099,21.982
		c0,0,1.045,0.277,1.807-0.347c0.846-0.698,0.757-1.678,0.757-1.678V13.78c0,0-0.491-0.633-1.27-0.633s-1.293,0.655-1.293,0.655
		L102.099,21.982L102.099,21.982z M95.969,5.693c0-1.204-0.489-1.876-1.281-1.893c-1.14-0.026-1.41,1.582-1.41,1.582
		s-0.207-1.239,0.829-2.364c0.583-0.628,1.671-1.511,3.371-1.103c1.756,0.426,2.255,1.788,2.255,2.991V21.49
		c0,0,0.664,0.078,1.119,0.181c0.528,0.108,1.028,0.25,1.028,0.25V1.924h0.218v2.697l3.601-2.899l2.638,2.346l1.23-1.063l0.14,0.167
		l-1.286,1.107v15.42c-0.064,1.006-0.227,2.029-1.176,2.617c-2.119,1.258-4.675-0.192-6.952-0.521
		c-1.69-0.251-4.343-0.57-5.009,0.979c-0.217,0.511-0.202,1.297,0.564,1.811c1.538,1.029,8.389-1.727,10.739-0.633
		c2.143,0.997,2.135,2.574,1.803,3.66c-0.557,2.033-3.125,2.39-3.125,2.39s1.256-0.729,0.898-1.938
		c-0.182-0.609-0.596-0.781-1.941-0.633c-2.937,0.334-6.447,1.758-8.805,0.77c-1.216-0.506-2.075-2.026-1.992-3.52
		c0.061-2.148,2.541-2.996,2.541-2.996l-0.001-7.947c-0.071-0.316-1.395-0.233-1.684,0.351c-0.44,0.883,0.547,1.287,0.547,1.287
		s-0.818,0.123-1.504-0.668c-0.334-0.387-1.031-1.74-0.124-2.992c0.745-1.032,1.639-1.212,2.766-1.335V5.693H95.969z"/>
</g>
</svg>
