<?xml version="1.0" encoding="utf-8"?>
<!-- Generator: Adobe Illustrator 16.0.0, SVG Export Plug-In . SVG Version: 6.00 Build 0)  -->
<!DOCTYPE svg PUBLIC "-//W3C//DTD SVG 1.1//EN" "http://www.w3.org/Graphics/SVG/1.1/DTD/svg11.dtd">
<svg version="1.1" id="svg2" xmlns:svg="http://www.w3.org/2000/svg"
	 xmlns="http://www.w3.org/2000/svg" xmlns:xlink="http://www.w3.org/1999/xlink" x="0px" y="0px" width="30px" height="5.152px"
	 viewBox="0 0 30 5.152" enable-background="new 0 0 30 5.152" xml:space="preserve">
<g>
	<path fill="#54606E" d="M25.424,3.383V2.614l-0.21,0.021c-0.209,0.02-0.381,0.159-0.381,0.419c0,0.299,0.165,0.43,0.339,0.43
		C25.271,3.486,25.375,3.435,25.424,3.383 M24.787,1.485l-0.19,0.557h-0.468V1.326c0.253-0.076,0.609-0.204,1.088-0.204
		c0.725,0,1.108,0.283,1.108,0.895v1.477l0.321,0.135v0.236c-0.088,0.049-0.354,0.109-0.573,0.109c-0.281,0-0.504-0.09-0.546-0.383
		h-0.022c-0.121,0.242-0.442,0.387-0.779,0.387c-0.482,0-0.785-0.309-0.785-0.762c0-0.557,0.367-0.677,0.964-0.801l0.521-0.091
		V1.997c0-0.351-0.105-0.523-0.452-0.523C24.927,1.474,24.842,1.48,24.787,1.485"/>
	<path fill="#54606E" d="M15.633,3.383V2.614l-0.21,0.021c-0.209,0.02-0.38,0.159-0.38,0.419c0,0.299,0.165,0.43,0.339,0.43
		C15.48,3.486,15.583,3.435,15.633,3.383 M14.996,1.485l-0.191,0.557h-0.467V1.326c0.253-0.076,0.609-0.204,1.088-0.204
		c0.725,0,1.109,0.283,1.109,0.895v1.477l0.32,0.135v0.236c-0.089,0.049-0.354,0.109-0.573,0.109c-0.281,0-0.504-0.09-0.546-0.383
		h-0.023c-0.121,0.242-0.442,0.387-0.78,0.387c-0.482,0-0.785-0.309-0.785-0.762c0-0.557,0.367-0.677,0.964-0.801l0.521-0.091V1.997
		c0-0.351-0.105-0.523-0.452-0.523C15.136,1.474,15.051,1.48,14.996,1.485"/>
	<path fill="#54606E" d="M0.416,3.15V1.647h-0.417V1.236L0.416,1.18V0.666L1.313,0.54v0.64h0.596v0.467H1.313v1.426
		c0,0.267,0.075,0.404,0.338,0.404c0.095,0,0.224-0.012,0.288-0.021v0.352C1.794,3.892,1.486,3.965,1.203,3.965
		C0.667,3.963,0.416,3.726,0.416,3.15"/>
	<path fill="#54606E" d="M6.629,1.45c0.226,0,0.348,0.099,0.348,0.808L6.223,2.302C6.222,1.66,6.342,1.45,6.629,1.45 M6.229,2.625
		h1.62c0-1.143-0.392-1.504-1.207-1.504c-0.81,0-1.341,0.521-1.341,1.416c0,0.925,0.48,1.435,1.415,1.435
		c0.502,0,0.908-0.221,1.033-0.393V3.314C7.561,3.375,7.366,3.408,7.02,3.408C6.529,3.406,6.277,3.154,6.229,2.625"/>
	<path fill="#54606E" d="M9.321,4.795c-0.494,0-0.708-0.123-0.708-0.313c0-0.133,0.04-0.254,0.127-0.33h1.064
		c0.223,0,0.396,0.031,0.396,0.232C10.201,4.666,9.938,4.795,9.321,4.795 M9.346,1.45c0.196,0,0.324,0.146,0.324,0.601
		s-0.129,0.57-0.324,0.57c-0.194,0-0.321-0.116-0.321-0.57S9.148,1.45,9.346,1.45 M9.892,3.326H8.987
		c-0.137,0-0.225-0.088-0.225-0.182c0-0.074,0.02-0.183,0.085-0.237c0.148,0.044,0.315,0.067,0.498,0.067
		c0.701,0,1.18-0.307,1.18-0.897c0-0.267-0.094-0.414-0.268-0.569l0.009-0.023l0.471,0.146V1.12h-0.053L10.01,1.24H9.971
		C9.802,1.178,9.563,1.128,9.345,1.128c-0.7,0-1.185,0.335-1.185,0.925c0,0.359,0.146,0.624,0.445,0.775v0.027
		C8.356,3.041,8.153,3.291,8.153,3.511c0,0.211,0.149,0.455,0.438,0.523v0.029C8.345,4.15,7.989,4.242,7.989,4.539
		c0,0.363,0.453,0.613,1.309,0.613c1.062,0,1.538-0.43,1.538-1.078C10.837,3.543,10.491,3.326,9.892,3.326"/>
	<polygon fill="#54606E" points="22.294,1.298 22.294,1.576 22.629,1.717 22.629,3.492 22.308,3.627 22.308,3.908 23.854,3.908 
		23.854,3.627 23.532,3.492 23.532,1.117 23.457,1.117 	"/>
	<path fill="#54606E" d="M16.975,1.298v0.278l0.335,0.142v1.774l-0.321,0.135v0.281h1.661V3.627l-0.436-0.135l-0.001-1.477
		c0.154-0.074,0.356-0.098,0.601-0.098c0.08,0,0.174,0.01,0.229,0.022V1.148c-0.03-0.01-0.089-0.014-0.134-0.014
		c-0.3,0-0.541,0.189-0.701,0.555h-0.03V1.115h-0.076L16.975,1.298"/>
	<path fill="#54606E" d="M23.078-0.001c0.266,0,0.479,0.214,0.479,0.479s-0.214,0.48-0.479,0.48c-0.265,0-0.479-0.217-0.479-0.48
		S22.813-0.001,23.078-0.001"/>
	<path fill="#54606E" d="M20.928,0.601l-0.367-0.14V0.182l1.195-0.181h0.076v3.405l0.318,0.158v0.27l-1.105,0.123h-0.077V3.674
		h-0.03c-0.113,0.143-0.346,0.295-0.684,0.295c-0.497,0-1.089-0.316-1.089-1.359c0-1.096,0.604-1.49,1.323-1.49
		c0.149,0,0.328,0.035,0.438,0.113L20.928,0.601 M20.927,3.427V1.592c-0.069-0.054-0.145-0.1-0.308-0.1
		c-0.282,0-0.5,0.258-0.5,1.023c0,0.671,0.173,0.964,0.528,0.964C20.787,3.48,20.865,3.451,20.927,3.427"/>
	<path fill="#54606E" d="M11.203,1.717l-0.336-0.142V1.297l1.163-0.182h0.076v1.916c0,0.312,0.151,0.365,0.38,0.365
		c0.169,0,0.235-0.029,0.325-0.063V1.717l-0.336-0.142V1.297l1.164-0.182h0.076v2.324l0.334,0.158v0.234l-1.13,0.123h-0.077
		l-0.001-0.363h-0.03c-0.174,0.217-0.46,0.375-0.828,0.375c-0.546,0-0.78-0.393-0.78-0.861V1.717"/>
	<path fill="#54606E" d="M2.108,3.627L2.43,3.492V0.598l-0.335-0.14V0.179l1.153-0.18h0.075v1.479h0.03
		c0.243-0.221,0.571-0.359,0.938-0.359c0.456,0,0.685,0.229,0.685,0.729v1.645l0.322,0.135v0.281H3.781V3.627L4.07,3.492V2.083
		c0-0.275-0.122-0.381-0.367-0.381c-0.134,0-0.263,0.024-0.371,0.069v1.72l0.287,0.135v0.281H2.105L2.108,3.627"/>
	<path fill="#54606E" d="M26.81,3.627l0.32-0.135V1.717l-0.335-0.142V1.297l1.152-0.182h0.076v0.362h0.03
		c0.243-0.221,0.571-0.357,0.938-0.357c0.457,0,0.687,0.228,0.687,0.727v1.645l0.323,0.135v0.281h-1.518V3.627l0.29-0.135V2.083
		c0-0.275-0.122-0.381-0.367-0.381c-0.134,0-0.263,0.024-0.373,0.069v1.72l0.29,0.135v0.281H26.81V3.627"/>
</g>
</svg>
